<svg xmlns="http://www.w3.org/2000/svg" viewBox="-181 -1420 11988 2117" role="img" aria-label="Racing Inc.: RAC, IN and a fused G+C">
<rect x="-181" y="-1420" width="11988" height="2117" fill="#0A0A0B"/>
<g transform="skewX(-10)"><g><path transform="translate(0.0 0) scale(1.0 -1.0)" d="M140 0H706V426H1354Q1646 426 1820.0 536.0Q1994 646 1994 888Q1994 1132 1830.0 1241.0Q1666 1350 1394 1350H140ZM1407 0H2047L1411 632H835ZM706 766V988H1232Q1334 988 1381.0 962.0Q1428 936 1428 876Q1428 818 1382.0 792.0Q1336 766 1232 766Z" fill="#FFFFFF"/><path transform="translate(2125.0 0) scale(1.0 -1.0)" d="M99 0H689L821 264H1575L1705 0H2295L1567 1352H829ZM968 606 1198 1072H1200L1430 606Z" fill="#FFFFFF"/><path transform="translate(4493.0 0) scale(1.0 -1.0)" d="M1082 -8Q1550 -8 1804.0 157.0Q2058 322 2058 546H1478Q1478 486 1366.0 420.0Q1254 354 1072 354Q884 354 757.0 436.0Q630 518 630 678Q630 840 758.0 921.0Q886 1002 1072 1002Q1256 1002 1367.0 938.0Q1478 874 1478 816H2058Q2058 1040 1805.0 1202.0Q1552 1364 1082 1364Q616 1364 334.0 1188.0Q52 1012 52 678Q52 346 334.0 169.0Q616 -8 1082 -8Z" fill="#FFFFFF"/></g><g transform="translate(0 216.0)"><path transform="translate(6645.0 0) scale(1.0 -1.0)" d="M224 0H784V1350H224Z" fill="#D40000"/><path transform="translate(7649.0 0) scale(1.0 -1.0)" d="M140 0H706V962H710L1430 0H2320V1350H1754V426H1753L1054 1350H140Z" fill="#D40000"/><path d="M11384.2 -899.1 V-965.2 A270.0 270.0 0 0 0 11114.2 -1235.2 H10533.8 A270.0 270.0 0 0 0 10263.8 -965.2 V-384.8 A270.0 270.0 0 0 0 10533.8 -114.8 H11114.2 A270.0 270.0 0 0 0 11384.2 -384.8 V-675.0 H10852.0" fill="none" stroke="#D40000" stroke-width="229.5" stroke-linejoin="miter"/><path d="M11100.8 -846.6 V-830.2 A121.5 121.5 0 0 0 10979.2 -951.8 H10668.8 A121.5 121.5 0 0 0 10547.2 -830.2 V-519.8 A121.5 121.5 0 0 0 10668.8 -398.2 H10979.2 A121.5 121.5 0 0 0 11100.8 -519.8 V-503.4" fill="none" stroke="#D40000" stroke-width="216.0" stroke-linejoin="miter"/></g><rect x="6645.0" y="-1350.0" width="4854.0" height="155.2" fill="#9AA0A6"/><rect x="0" y="60.8" width="6639.0" height="155.2" fill="#9AA0A6"/><g transform="translate(0 627.1)"><path transform="translate(0.0 0) scale(0.22999999999999993 -0.22999999999999993)" d="M301.879638671875 0H736.0285034179688L960.42041015625 1155.5516357421875H963.42041015625L1187.6063842773438 0H1621.3582153320312L1880.2098999023438 1350H1573.0216674804688L1389.7022094726562 208.11065673828125H1386.7022094726562L1149.0450439453125 1350H774.7957763671875L538.1386108398438 208.713623046875H534.53564453125L355.64288330078125 1350H50.0576171875Z" fill="#9AA0A6"/><path transform="translate(492.7 0) scale(0.22999999999999993 -0.22999999999999993)" d="M81.16143798828125 0H365.4517822265625V585.40673828125H907.825439453125V0H1192.1157836914062V1350H907.825439453125V779.8551025390625H365.4517822265625V1350H81.16143798828125Z" fill="#9AA0A6"/><path transform="translate(840.1 0) scale(0.22999999999999993 -0.22999999999999993)" d="M77.116943359375 0H1026.4038696289062V194.4483642578125H361.40728759765625V593.937255859375H981.7564086914062V779.3411254882812H361.40728759765625V1155.5516357421875H1026.4038696289062V1350H77.116943359375Z" fill="#9AA0A6"/><path transform="translate(1143.3 0) scale(0.22999999999999993 -0.22999999999999993)" d="M81.16143798828125 0H366.05474853515625V557.3936157226562H798.008544921875Q1016.7022094726562 557.3936157226562 1092.3867492675781 669.8425598144531Q1168.0712890625 782.29150390625 1168.0712890625 947.3656616210938Q1168.0712890625 1114.2487182617188 1095.4015808105469 1232.1243591308594Q1022.7318725585938 1350 809.4649047851562 1350H81.16143798828125ZM878.58984375 0H1186.9840087890625L882.0844116210938 645.7347412109375L599.6177978515625 632.3228759765625ZM366.05474853515625 733.1500244140625V1155.5516357421875H716.8140258789062Q811.1648559570312 1155.5516357421875 846.972900390625 1099.1340637207031Q882.7809448242188 1042.7164916992188 882.7809448242188 943.7478637695312Q882.7809448242188 845.7792358398438 847.472900390625 789.4646301269531Q812.1648559570312 733.1500244140625 716.8140258789062 733.1500244140625Z" fill="#9AA0A6"/><path transform="translate(1479.0 0) scale(0.22999999999999993 -0.22999999999999993)" d="M77.116943359375 0H1026.4038696289062V194.4483642578125H361.40728759765625V593.937255859375H981.7564086914062V779.3411254882812H361.40728759765625V1155.5516357421875H1026.4038696289062V1350H77.116943359375Z" fill="#9AA0A6"/><path transform="translate(1943.5 0) scale(0.22999999999999993 -0.22999999999999993)" d="M81.16143798828125 0H361.833984375V1153.7279052734375H366.23101806640625L675.4004516601562 51.8499755859375H1009.4420776367188L1318.6115112304688 1153.7279052734375H1323.008544921875V0H1603.6810913085938V1350H1143.2373046875L844.3182983398438 254.96063232421875H840.5242309570312L541.605224609375 1350H81.16143798828125Z" fill="#9AA0A6"/><path transform="translate(2385.4 0) scale(0.22999999999999993 -0.22999999999999993)" d="M677.9161376953125 -10.411865234375Q1011.6856689453125 -10.411865234375 1153.5168151855469 159.37564086914062Q1295.3479614257812 329.16314697265625 1295.3479614257812 675Q1295.3479614257812 1021.0427856445312 1153.5168151855469 1191.4258422851562Q1011.6856689453125 1361.8088989257812 677.9161376953125 1361.8088989257812Q344.1466064453125 1361.8088989257812 202.81546020507812 1191.9258422851562Q61.48431396484375 1022.0427856445312 61.48431396484375 675Q61.48431396484375 329.16314697265625 203.31546020507812 159.37564086914062Q345.1466064453125 -10.411865234375 677.9161376953125 -10.411865234375ZM677.9161376953125 184.0364990234375Q529.18310546875 184.0364990234375 437.0744323730469 274.0635986328125Q344.96575927734375 364.0906982421875 344.96575927734375 675Q344.96575927734375 989.527099609375 437.0744323730469 1078.4438171386719Q529.18310546875 1167.3605346679688 677.9161376953125 1167.3605346679688Q827.649169921875 1167.3605346679688 919.7578430175781 1078.4438171386719Q1011.8665161132812 989.527099609375 1011.8665161132812 675Q1011.8665161132812 364.0906982421875 919.7578430175781 274.0635986328125Q827.649169921875 184.0364990234375 677.9161376953125 184.0364990234375Z" fill="#9AA0A6"/><path transform="translate(2744.8 0) scale(0.22999999999999993 -0.22999999999999993)" d="M81.16143798828125 0H363.64288330078125V1147.3160400390625H368.245849609375L917.7940673828125 0H1366.0022583007812V1350H1082.9178466796875L1080.5059814453125 217.1551513671875H1077.5059814453125L533.5903930664062 1350H81.16143798828125Z" fill="#9AA0A6"/><path transform="translate(3132.2 0) scale(0.22999999999999993 -0.22999999999999993)" d="M77.116943359375 0H1026.4038696289062V194.4483642578125H361.40728759765625V593.937255859375H981.7564086914062V779.3411254882812H361.40728759765625V1155.5516357421875H1026.4038696289062V1350H77.116943359375Z" fill="#9AA0A6"/><path transform="translate(3435.4 0) scale(0.22999999999999993 -0.22999999999999993)" d="M528.3245849609375 0H812.011962890625V513.527099609375L1311.720458984375 1350H1003.1351928710938L671.771240234375 739.6822509765625H670.1682739257812L336.99542236328125 1350H28.41015625L528.3245849609375 514.527099609375Z" fill="#9AA0A6"/><path transform="translate(3790.3 0) scale(0.22999999999999993 -0.22999999999999993)" d="M42.17626953125 -251.0924072265625H206.4466552734375L409.7432861328125 138.6212158203125H145.07244873046875Z" fill="#9AA0A6"/><path transform="translate(4125.2 0) scale(0.22999999999999993 -0.22999999999999993)" d="M81.16143798828125 0H365.4517822265625V374.27667236328125H756.3776245117188Q997.0564575195312 374.27667236328125 1075.9757385253906 514.5419311523438Q1154.89501953125 654.8071899414062 1154.89501953125 863.0427856445312Q1154.89501953125 1070.0724487304688 1076.2772216796875 1210.0362243652344Q997.659423828125 1350 756.3776245117188 1350H81.16143798828125ZM365.4517822265625 568.7250366210938V1155.5516357421875H670.594970703125Q781.4597778320312 1155.5516357421875 827.0396423339844 1083.7889404296875Q872.6195068359375 1012.0262451171875 872.6195068359375 862.0427856445312Q872.6195068359375 711.8533935546875 827.3411254882812 640.2892150878906Q782.062744140625 568.7250366210938 670.594970703125 568.7250366210938Z" fill="#9AA0A6"/><path transform="translate(4453.0 0) scale(0.22999999999999993 -0.22999999999999993)" d="M677.9161376953125 -10.411865234375Q1011.6856689453125 -10.411865234375 1153.5168151855469 159.37564086914062Q1295.3479614257812 329.16314697265625 1295.3479614257812 675Q1295.3479614257812 1021.0427856445312 1153.5168151855469 1191.4258422851562Q1011.6856689453125 1361.8088989257812 677.9161376953125 1361.8088989257812Q344.1466064453125 1361.8088989257812 202.81546020507812 1191.9258422851562Q61.48431396484375 1022.0427856445312 61.48431396484375 675Q61.48431396484375 329.16314697265625 203.31546020507812 159.37564086914062Q345.1466064453125 -10.411865234375 677.9161376953125 -10.411865234375ZM677.9161376953125 184.0364990234375Q529.18310546875 184.0364990234375 437.0744323730469 274.0635986328125Q344.96575927734375 364.0906982421875 344.96575927734375 675Q344.96575927734375 989.527099609375 437.0744323730469 1078.4438171386719Q529.18310546875 1167.3605346679688 677.9161376953125 1167.3605346679688Q827.649169921875 1167.3605346679688 919.7578430175781 1078.4438171386719Q1011.8665161132812 989.527099609375 1011.8665161132812 675Q1011.8665161132812 364.0906982421875 919.7578430175781 274.0635986328125Q827.649169921875 184.0364990234375 677.9161376953125 184.0364990234375Z" fill="#9AA0A6"/><path transform="translate(4812.3 0) scale(0.22999999999999993 -0.22999999999999993)" d="M301.879638671875 0H736.0285034179688L960.42041015625 1155.5516357421875H963.42041015625L1187.6063842773438 0H1621.3582153320312L1880.2098999023438 1350H1573.0216674804688L1389.7022094726562 208.11065673828125H1386.7022094726562L1149.0450439453125 1350H774.7957763671875L538.1386108398438 208.713623046875H534.53564453125L355.64288330078125 1350H50.0576171875Z" fill="#9AA0A6"/><path transform="translate(5305.1 0) scale(0.22999999999999993 -0.22999999999999993)" d="M77.116943359375 0H1026.4038696289062V194.4483642578125H361.40728759765625V593.937255859375H981.7564086914062V779.3411254882812H361.40728759765625V1155.5516357421875H1026.4038696289062V1350H77.116943359375Z" fill="#9AA0A6"/><path transform="translate(5608.3 0) scale(0.22999999999999993 -0.22999999999999993)" d="M81.16143798828125 0H366.05474853515625V557.3936157226562H798.008544921875Q1016.7022094726562 557.3936157226562 1092.3867492675781 669.8425598144531Q1168.0712890625 782.29150390625 1168.0712890625 947.3656616210938Q1168.0712890625 1114.2487182617188 1095.4015808105469 1232.1243591308594Q1022.7318725585938 1350 809.4649047851562 1350H81.16143798828125ZM878.58984375 0H1186.9840087890625L882.0844116210938 645.7347412109375L599.6177978515625 632.3228759765625ZM366.05474853515625 733.1500244140625V1155.5516357421875H716.8140258789062Q811.1648559570312 1155.5516357421875 846.972900390625 1099.1340637207031Q882.7809448242188 1042.7164916992188 882.7809448242188 943.7478637695312Q882.7809448242188 845.7792358398438 847.472900390625 789.4646301269531Q812.1648559570312 733.1500244140625 716.8140258789062 733.1500244140625Z" fill="#9AA0A6"/><path transform="translate(5943.9 0) scale(0.22999999999999993 -0.22999999999999993)" d="M42.17626953125 -251.0924072265625H206.4466552734375L409.7432861328125 138.6212158203125H145.07244873046875Z" fill="#9AA0A6"/><path transform="translate(6278.7 0) scale(0.22999999999999993 -0.22999999999999993)" d="M60.74957275390625 0H354.069580078125L457.2144775390625 347.760986328125H947.8699340820312L1050.0148315429688 0H1343.3348388671875L903.7335815429688 1352.1911010742188H500.1448974609375ZM504.40728759765625 536.1796875 701.24072265625 1184.8613891601562H704.4466552734375L901.2800903320312 536.1796875Z" fill="#9AA0A6"/><path transform="translate(6646.1 0) scale(0.22999999999999993 -0.22999999999999993)" d="M81.16143798828125 0H363.64288330078125V1147.3160400390625H368.245849609375L917.7940673828125 0H1366.0022583007812V1350H1082.9178466796875L1080.5059814453125 217.1551513671875H1077.5059814453125L533.5903930664062 1350H81.16143798828125Z" fill="#9AA0A6"/><path transform="translate(7033.5 0) scale(0.22999999999999993 -0.22999999999999993)" d="M81.16143798828125 0H723.1568603515625Q992.60009765625 0 1103.9089965820312 148.74301147460938Q1215.2178955078125 297.48602294921875 1215.2178955078125 675.6029663085938Q1215.2178955078125 1053.7199096679688 1104.4089965820312 1201.8599548339844Q993.60009765625 1350 723.1568603515625 1350H81.16143798828125ZM364.84881591796875 194.4483642578125V1155.5516357421875H646.1979370117188Q790.886474609375 1155.5516357421875 861.0099792480469 1073.5022888183594Q931.1334838867188 991.4529418945312 931.1334838867188 675.6029663085938Q931.1334838867188 359.54705810546875 861.0099792480469 276.9977111816406Q790.886474609375 194.4483642578125 646.1979370117188 194.4483642578125Z" fill="#9AA0A6"/><path transform="translate(7536.0 0) scale(0.22999999999999993 -0.22999999999999993)" d="M636.3297119140625 -7.7940673828125Q962.8636474609375 -7.7940673828125 1083.3570861816406 111.13348388671875Q1203.8505249023438 230.06103515625 1203.8505249023438 400.415283203125Q1203.8505249023438 573.0182495117188 1097.9460754394531 642.915283203125Q992.0416259765625 712.8123168945312 717.9064331054688 773.591552734375Q540.7894897460938 812.70849609375 438.5909729003906 852.8468322753906Q336.3924560546875 892.9851684570312 336.3924560546875 996.1597290039062Q336.3924560546875 1075.34912109375 413.99456787109375 1121.9577941894531Q491.5966796875 1168.5664672851562 628.6822509765625 1168.5664672851562Q759.7233276367188 1168.5664672851562 838.8402709960938 1113.7815246582031Q917.9572143554688 1058.99658203125 917.9572143554688 867.9127197265625H1202.6445922851562Q1202.6445922851562 1104.2042236328125 1080.6214904785156 1233.0065612792969Q958.598388671875 1361.8088989257812 631.6970825195312 1361.8088989257812Q307.95721435546875 1361.8088989257812 184.65487670898438 1244.9843139648438Q61.3525390625 1128.1597290039062 61.3525390625 964.2025146484375Q61.3525390625 792.5550537109375 169.07330322265625 716.7461547851562Q276.7940673828125 640.937255859375 542.5025634765625 581.34912109375Q722.6195068359375 542.64404296875 823.3031921386719 503.3879089355469Q923.9868774414062 464.13177490234375 923.9868774414062 361.22247314453125Q923.9868774414062 275.4449462890625 846.5832824707031 230.4466552734375Q769.1796875 185.4483642578125 633.9178466796875 185.4483642578125Q498.46490478515625 185.4483642578125 421.450927734375 241.13034057617188Q344.43695068359375 296.81231689453125 344.43695068359375 493.07244873046875H60.3525390625Q60.3525390625 242.98687744140625 180.56674194335938 117.59640502929688Q300.78094482421875 -7.7940673828125 636.3297119140625 -7.7940673828125Z" fill="#9AA0A6"/><path transform="translate(7879.2 0) scale(0.22999999999999993 -0.22999999999999993)" d="M81.16143798828125 0H365.4517822265625V374.27667236328125H756.3776245117188Q997.0564575195312 374.27667236328125 1075.9757385253906 514.5419311523438Q1154.89501953125 654.8071899414062 1154.89501953125 863.0427856445312Q1154.89501953125 1070.0724487304688 1076.2772216796875 1210.0362243652344Q997.659423828125 1350 756.3776245117188 1350H81.16143798828125ZM365.4517822265625 568.7250366210938V1155.5516357421875H670.594970703125Q781.4597778320312 1155.5516357421875 827.0396423339844 1083.7889404296875Q872.6195068359375 1012.0262451171875 872.6195068359375 862.0427856445312Q872.6195068359375 711.8533935546875 827.3411254882812 640.2892150878906Q782.062744140625 568.7250366210938 670.594970703125 568.7250366210938Z" fill="#9AA0A6"/><path transform="translate(8207.1 0) scale(0.22999999999999993 -0.22999999999999993)" d="M77.116943359375 0H1026.4038696289062V194.4483642578125H361.40728759765625V593.937255859375H981.7564086914062V779.3411254882812H361.40728759765625V1155.5516357421875H1026.4038696289062V1350H77.116943359375Z" fill="#9AA0A6"/><path transform="translate(8510.3 0) scale(0.22999999999999993 -0.22999999999999993)" d="M77.116943359375 0H1026.4038696289062V194.4483642578125H361.40728759765625V593.937255859375H981.7564086914062V779.3411254882812H361.40728759765625V1155.5516357421875H1026.4038696289062V1350H77.116943359375Z" fill="#9AA0A6"/><path transform="translate(8813.5 0) scale(0.22999999999999993 -0.22999999999999993)" d="M81.16143798828125 0H723.1568603515625Q992.60009765625 0 1103.9089965820312 148.74301147460938Q1215.2178955078125 297.48602294921875 1215.2178955078125 675.6029663085938Q1215.2178955078125 1053.7199096679688 1104.4089965820312 1201.8599548339844Q993.60009765625 1350 723.1568603515625 1350H81.16143798828125ZM364.84881591796875 194.4483642578125V1155.5516357421875H646.1979370117188Q790.886474609375 1155.5516357421875 861.0099792480469 1073.5022888183594Q931.1334838867188 991.4529418945312 931.1334838867188 675.6029663085938Q931.1334838867188 359.54705810546875 861.0099792480469 276.9977111816406Q790.886474609375 194.4483642578125 646.1979370117188 194.4483642578125Z" fill="#9AA0A6"/><path transform="translate(9316.0 0) scale(0.22999999999999993 -0.22999999999999993)" d="M644.7991943359375 -8.39703369140625Q980.9805908203125 -8.39703369140625 1099.4443664550781 154.22903442382812Q1217.9081420898438 316.8551025390625 1217.9081420898438 543.11865234375H929.6029663085938Q929.6029663085938 343.13519287109375 855.9349670410156 264.59326171875Q782.2669677734375 186.05133056640625 642.3873291015625 186.05133056640625Q499.5076904296875 186.05133056640625 417.5456237792969 273.78436279296875Q335.58355712890625 361.51739501953125 335.58355712890625 678.2059326171875Q335.58355712890625 993.6885375976562 417.6485900878906 1080.5245361328125Q499.713623046875 1167.3605346679688 642.3873291015625 1167.3605346679688Q782.8699340820312 1167.3605346679688 856.2364501953125 1090.8111877441406Q929.6029663085938 1014.2618408203125 929.6029663085938 811.2783813476562H1217.9081420898438Q1217.9081420898438 1042.9537963867188 1099.745849609375 1202.38134765625Q981.5835571289062 1361.8088989257812 644.1962280273438 1361.8088989257812Q308.04449462890625 1361.8088989257812 177.96292114257812 1192.8006286621094Q47.88134765625 1023.7923583984375 47.88134765625 678.2059326171875Q47.88134765625 332.825439453125 178.16143798828125 162.21420288085938Q308.4415283203125 -8.39703369140625 644.7991943359375 -8.39703369140625Z" fill="#9AA0A6"/><path transform="translate(9662.4 0) scale(0.22999999999999993 -0.22999999999999993)" d="M677.9161376953125 -10.411865234375Q1011.6856689453125 -10.411865234375 1153.5168151855469 159.37564086914062Q1295.3479614257812 329.16314697265625 1295.3479614257812 675Q1295.3479614257812 1021.0427856445312 1153.5168151855469 1191.4258422851562Q1011.6856689453125 1361.8088989257812 677.9161376953125 1361.8088989257812Q344.1466064453125 1361.8088989257812 202.81546020507812 1191.9258422851562Q61.48431396484375 1022.0427856445312 61.48431396484375 675Q61.48431396484375 329.16314697265625 203.31546020507812 159.37564086914062Q345.1466064453125 -10.411865234375 677.9161376953125 -10.411865234375ZM677.9161376953125 184.0364990234375Q529.18310546875 184.0364990234375 437.0744323730469 274.0635986328125Q344.96575927734375 364.0906982421875 344.96575927734375 675Q344.96575927734375 989.527099609375 437.0744323730469 1078.4438171386719Q529.18310546875 1167.3605346679688 677.9161376953125 1167.3605346679688Q827.649169921875 1167.3605346679688 919.7578430175781 1078.4438171386719Q1011.8665161132812 989.527099609375 1011.8665161132812 675Q1011.8665161132812 364.0906982421875 919.7578430175781 274.0635986328125Q827.649169921875 184.0364990234375 677.9161376953125 184.0364990234375Z" fill="#9AA0A6"/><path transform="translate(10021.8 0) scale(0.22999999999999993 -0.22999999999999993)" d="M81.16143798828125 0H931.6394653320312V193.242431640625H365.4517822265625V1350H81.16143798828125Z" fill="#9AA0A6"/><path transform="translate(10299.0 0) scale(0.22999999999999993 -0.22999999999999993)" d="M81.16143798828125 0H931.6394653320312V193.242431640625H365.4517822265625V1350H81.16143798828125Z" fill="#9AA0A6"/><path transform="translate(10576.2 0) scale(0.22999999999999993 -0.22999999999999993)" d="M133.88134765625 0H416.96575927734375V1350H133.88134765625Z" fill="#9AA0A6"/><path transform="translate(10754.1 0) scale(0.22999999999999993 -0.22999999999999993)" d="M81.16143798828125 0H723.1568603515625Q992.60009765625 0 1103.9089965820312 148.74301147460938Q1215.2178955078125 297.48602294921875 1215.2178955078125 675.6029663085938Q1215.2178955078125 1053.7199096679688 1104.4089965820312 1201.8599548339844Q993.60009765625 1350 723.1568603515625 1350H81.16143798828125ZM364.84881591796875 194.4483642578125V1155.5516357421875H646.1979370117188Q790.886474609375 1155.5516357421875 861.0099792480469 1073.5022888183594Q931.1334838867188 991.4529418945312 931.1334838867188 675.6029663085938Q931.1334838867188 359.54705810546875 861.0099792480469 276.9977111816406Q790.886474609375 194.4483642578125 646.1979370117188 194.4483642578125Z" fill="#9AA0A6"/><path transform="translate(11095.3 0) scale(0.22999999999999993 -0.22999999999999993)" d="M77.116943359375 0H1026.4038696289062V194.4483642578125H361.40728759765625V593.937255859375H981.7564086914062V779.3411254882812H361.40728759765625V1155.5516357421875H1026.4038696289062V1350H77.116943359375Z" fill="#9AA0A6"/><path transform="translate(11398.5 0) scale(0.22999999999999993 -0.22999999999999993)" d="M75.0872802734375 222.181396484375V0H339.2738037109375V222.181396484375Z" fill="#9AA0A6"/></g></g>
</svg>
